Coordinates
version=1
nRows=22
nColumns=24
inDegrees=yes

Units are S.I. units (second, meters, Newtons, ...)
Angles are in degrees.

endheader
time	pelvis_tilt	pelvis_list	pelvis_rotation	pelvis_tx	pelvis_ty	pelvis_tz	hip_flexion_r	hip_adduction_r	hip_rotation_r	knee_angle_r	ankle_angle_r	subtalar_angle_r	mtp_angle_r	hip_flexion_l	hip_adduction_l	hip_rotation_l	knee_angle_l	ankle_angle_l	subtalar_angle_l	mtp_angle_l	lumbar_extension	lumbar_bending	lumbar_rotation
      5.91000000	     -2.32202752	      5.21899263	      8.17062239	     -0.92133277	      0.67646168	      0.16186731	     30.23642676	     -4.53347614	     -3.16050111	    -52.77844951	     -3.56403275	    -32.19526338	      0.00000000	     -7.03164736	      8.73105746	      8.89832581	      1.03859627	     10.87876339	     -7.01430981	      0.00000000	    -17.00568138	     -6.99643548	    -10.28971658
      5.92000000	     -2.20026794	      5.45116953	      9.80439679	     -0.90810442	      0.67516089	      0.16023536	     30.60911042	     -5.54516643	     -3.37305378	    -48.51202364	     -4.01118782	    -33.63153543	      0.00000000	     -8.46392264	      8.67829432	     10.22468123	      0.86425735	     11.77366630	     -6.96962985	      0.00000000	    -17.67557638	     -6.91943391	    -11.72398868
      5.93000000	     -2.40628195	      5.87596891	     11.37997548	     -0.89480661	      0.67341607	      0.15866171	     30.97619799	     -6.81319490	     -3.39111061	    -43.67645030	     -3.90002736	    -33.97045481	      0.00000000	     -9.55183504	      8.83164709	     11.41975142	      0.57795854	     12.70229744	     -6.71410519	      0.00000000	    -17.97062521	     -7.13697951	    -13.09753091
      5.94000000	     -2.33250181	      6.16510517	     12.80244447	     -0.88114862	      0.67181574	      0.15728299	     30.53587290	     -7.81922630	     -3.34018431	    -37.95311038	     -4.17495957	    -34.27799879	      0.00000000	    -11.01382302	      8.70052719	     12.45169581	      0.45376056	     13.54276516	     -6.42608414	      0.00000000	    -18.48430299	     -7.17694712	    -14.30293729
      5.95000000	     -2.44141355	      6.53720280	     14.17905050	     -0.86717887	      0.66989618	      0.15590021	     29.86753856	     -8.94299303	     -3.31318219	    -31.65289709	     -4.26302495	    -33.74851172	      0.00000000	    -12.37554849	      8.61124844	     13.49672861	      0.39619377	     14.27410421	     -6.10183854	      0.00000000	    -18.70743703	     -7.35342181	    -15.42649902
      5.96000000	     -2.49158886	      6.93234583	     15.52205154	     -0.85275146	      0.66784979	      0.15450263	     28.74641128	    -10.08684590	     -3.58310579	    -24.92791122	     -4.04651906	    -32.23654517	      0.00000000	    -13.91721364	      8.41685633	     14.61072526	      0.47377452	     14.84795628	     -5.75777020	      0.00000000	    -18.89013005	     -7.53618385	    -16.49152613
      5.97000000	     -2.54995951	      7.38224195	     16.91076299	     -0.83787429	      0.66561554	      0.15297976	     27.40719678	    -11.33891649	     -4.59392725	    -18.23427645	     -2.91444305	    -28.94515499	      0.00000000	    -15.53900092	      8.15578267	     15.87346277	      0.61040973	     15.19247405	     -5.59488391	      0.00000000	    -18.97334421	     -7.74519364	    -17.66022897
      5.98000000	     -2.50138739	      7.78938839	     18.32157980	     -0.82244173	      0.66329905	      0.15143552	     25.84914142	    -12.45602230	     -6.49449824	    -11.91305629	     -1.40855717	    -24.43509033	      0.00000000	    -17.33765859	      7.66211371	     17.29920700	      0.82498042	     15.54608497	     -5.20314028	      0.00000000	    -19.04032916	     -7.85934567	    -18.78059603
      5.99000000	     -2.48340145	      8.10377710	     19.82880336	     -0.80661608	      0.66089134	      0.14989931	     24.45241346	    -13.38946902	     -9.51563514	     -6.59139297	      0.77326508	    -18.39365473	      0.00000000	    -19.03675693	      6.93666273	     18.77330470	      0.95562497	     15.80473394	     -4.79723980	      0.00000000	    -18.98101308	     -7.87716709	    -20.03500852
      6.00000000	     -2.72045018	      8.29189543	     21.32288605	     -0.79057450	      0.65832360	      0.14855846	     23.61588766	    -14.07562142	    -12.96206457	     -2.56272060	      2.85146774	    -12.04685986	      0.00000000	    -20.30249751	      6.10755987	     20.16884195	      0.88805068	     15.83765716	     -4.49655273	      0.00000000	    -18.56841109	     -7.91523349	    -21.30651686
      6.01000000	     -2.67628872	      8.22341377	     22.64571244	     -0.77423368	      0.65606773	      0.14756469	     22.68074688	    -14.17952807	    -15.75464817	      0.41324615	      3.92983786	     -7.43028758	      0.00000000	    -21.65760158	      4.88050192	     21.31999621	      0.74082572	     15.88572265	     -3.87334237	      0.00000000	    -18.33124790	     -7.65129552	    -22.28200213
      6.02000000	     -2.91025125	      8.00637716	     23.83572899	     -0.75785636	      0.65378351	      0.14683501	     22.31956105	    -14.14670188	    -17.59303771	      2.12700744	      4.25326308	     -4.71845794	      0.00000000	    -22.46653143	      3.67536969	     22.17358410	      0.30835107	     15.73670623	     -3.20650017	      0.00000000	    -17.74174474	     -7.44353270	    -23.11735601
      6.03000000	     -3.15948855	      7.61934399	     24.77101206	     -0.74139731	      0.65168162	      0.14643230	     22.24122909	    -13.90256966	    -18.21046123	      2.68001622	      3.55737293	     -4.55207860	      0.00000000	    -23.01429549	      2.42802194	     22.71099147	     -0.35753781	     15.42588087	     -2.52092967	      0.00000000	    -17.05901628	     -7.17131693	    -23.69606254
      6.04000000	     -3.25003948	      7.10562029	     25.42801291	     -0.72488601	      0.64995205	      0.14638335	     22.32934295	    -13.45714919	    -17.88104584	      2.02180331	      1.93893411	     -6.66554836	      0.00000000	    -23.45615691	      1.13760502	     22.63678973	     -1.31276526	     15.03700804	     -1.32237964	      0.00000000	    -16.51349623	     -6.78584782	    -23.99243263
      6.05000000	     -3.46178584	      6.45178825	     25.77150386	     -0.70843763	      0.64834781	      0.14675680	     23.00972525	    -12.89281682	    -16.52339692	      0.08726189	     -0.78163864	    -10.87267939	      0.00000000	    -23.51663906	     -0.04110275	     22.21861257	     -2.58056812	     14.45675194	     -0.13624431	      0.00000000	    -15.81537384	     -6.41750691	    -24.00773718
      6.06000000	     -3.60619961	      5.67609631	     25.77529353	     -0.69207309	      0.64702048	      0.14759646	     24.13880005	    -12.09065997	    -14.47722636	     -3.06201502	     -4.13722958	    -16.21389718	      0.00000000	    -23.39016260	     -1.16122905	     21.39111531	     -4.16650518	     13.61689460	      1.02739556	      0.00000000	    -15.19442434	     -5.96168148	    -23.81482113
      6.07000000	     -3.61233776	      4.79795917	     25.51499815	     -0.67580810	      0.64603744	      0.14883264	     25.59434088	    -11.00049793	    -12.34398374	     -7.23821551	     -7.24330588	    -21.36334590	      0.00000000	    -23.14674952	     -2.26766740	     20.23525806	     -6.09013270	     12.48062262	      2.24109313	      0.00000000	    -14.74650978	     -5.36856036	    -23.49089983
      6.08000000	     -3.57216789	      3.90598030	     25.02731428	     -0.65965901	      0.64529652	      0.15037650	     27.30056145	     -9.69054468	    -10.33337458	    -12.11187376	     -8.56647867	    -24.99249658	      0.00000000	    -22.70675352	     -3.22870228	     18.90792908	     -8.42657230	     10.97928358	      3.06697027	      0.00000000	    -14.41547796	     -4.74572316	    -23.18624296
      6.09000000	     -3.22476554	      2.97964667	     24.47381482	     -0.64348584	      0.64502968	      0.15203295	     28.57287756	     -8.03801119	     -8.72926309	    -16.84876646	     -8.44886778	    -27.38534639	      0.00000000	    -22.30591560	     -4.26426412	     17.39298303	    -11.15322185	      8.96617200	      3.82452729	      0.00000000	    -14.44025341	     -3.90817992	    -22.96642576
      6.10000000	     -2.71875573	      2.10130454	     23.98149406	     -0.62736626	      0.64521786	      0.15363726	     29.26880028	     -6.22604320	     -7.49962924	    -20.90648724	     -7.15962849	    -28.80273165	      0.00000000	    -21.80361860	     -5.25336997	     16.04904862	    -14.25551153	      6.12267299	      3.90901208	      0.00000000	    -14.70594500	     -3.00058311	    -22.92282122
      6.11000000	     -2.22176091	      1.28727124	     23.60951248	     -0.61136114	      0.64573413	      0.15518352	     29.41391448	     -4.34362153	     -6.40037988	    -23.99722513	     -5.58021554	    -30.16525799	      0.00000000	    -20.92277192	     -6.16594997	     14.65302745	    -17.85271618	      2.76788675	      3.90620806	      0.00000000	    -15.01784869	     -2.12289239	    -23.17921845
      6.12000000	     -1.73483173	      0.54719196	     23.39100568	     -0.59558940	      0.64660313	      0.15662426	     28.96528427	     -2.46131075	     -5.43387191	    -26.02920733	     -3.95961064	    -31.51650214	      0.00000000	    -19.63877370	     -7.00452881	     13.42154616	    -21.91524641	     -1.04101211	      3.50713490	      0.00000000	    -15.37847369	     -1.28473436	    -23.59653150
